<svg width="250" height="251" viewBox="0 0 250 251" fill="none" xmlns="http://www.w3.org/2000/svg">
<path id="Vector" d="M125 0.5C56.125 0.5 0 56.625 0 125.5C0 194.375 56.125 250.5 125 250.5C193.875 250.5 250 194.375 250 125.5C250 56.625 193.875 0.5 125 0.5ZM184.75 96.75L113.875 167.625C112.125 169.375 109.75 170.375 107.25 170.375C104.75 170.375 102.375 169.375 100.625 167.625L65.25 132.25C61.625 128.625 61.625 122.625 65.25 119C68.875 115.375 74.875 115.375 78.5 119L107.25 147.75L171.5 83.5C175.125 79.875 181.125 79.875 184.75 83.5C188.375 87.125 188.375 93 184.75 96.75Z" fill="#84B332"/>
</svg>
