<svg width="30" height="30" viewBox="0 0 30 30" fill="none" xmlns="http://www.w3.org/2000/svg">
<path id="Vector" d="M29.7751 12.6373C29.2504 9.55563 27.8263 6.69943 25.6525 4.5197C24.6031 3.46742 23.4788 2.56546 22.2045 1.81383C20.8553 1.0622 19.2812 0.536058 17.7821 0.235405C11.6357 -0.892041 5.26439 2.11448 2.19117 7.45107C0.692044 9.85629 -0.132476 12.938 0.0174366 15.7942C0.242306 18.8007 1.2917 21.7321 3.09065 24.0621C4.8896 26.4673 7.43812 28.2712 10.2115 29.1732C11.7106 29.6993 13.2098 30 14.7838 30C16.4329 30 18.0819 29.6993 19.5811 29.1732C22.5044 28.1961 25.1278 26.317 27.0017 23.8366C27.9012 22.634 28.5758 21.2059 29.1005 19.7778C29.6252 18.2746 30 16.621 30 15.0425C30 14.2157 29.925 13.389 29.7751 12.6373ZM15.1586 2.4903C15.8332 2.56546 16.283 3.0916 16.283 3.76807C16.283 4.5197 15.7583 4.97068 15.0087 5.04585C14.2592 5.04585 13.7345 4.5197 13.7345 3.69291C13.8094 2.94128 14.4091 2.41514 15.1586 2.4903ZM2.56595 15.3432C2.41604 14.5164 2.94074 13.6896 3.84021 13.7648C5.33934 13.6144 5.48925 15.9445 4.14004 16.2452C3.46543 16.3955 2.71587 16.0948 2.56595 15.3432ZM5.26439 21.8824C4.51482 21.8824 3.99013 21.4314 3.99013 20.6798C3.99013 19.1013 6.46369 19.0262 6.46369 20.6798C6.46369 21.3562 6.01395 21.8824 5.26439 21.8824ZM4.06508 9.40531C4.06508 8.72884 4.51482 8.2027 5.18943 8.12753C5.93899 8.05237 6.6136 8.57851 6.53864 9.33014C6.46369 10.9837 3.99013 11.0589 4.06508 9.40531ZM9.46194 3.99356C10.1366 3.99356 10.5863 4.5197 10.5863 5.19617C10.5863 5.9478 10.0616 6.47395 9.31203 6.47395C8.63742 6.47395 8.11273 5.9478 8.11273 5.27133C8.18769 4.44454 8.63742 3.99356 9.46194 3.99356ZM9.46194 26.0164C7.8129 26.0915 7.8129 23.536 9.46194 23.536C10.9611 23.6111 11.036 26.0164 9.46194 26.0164ZM15.0087 27.5948C13.5096 27.6699 13.2847 25.2647 14.7838 25.1144C15.4585 25.0392 16.208 25.3399 16.283 26.1667C16.3579 26.8431 15.8332 27.5948 15.0087 27.5948ZM18.1569 19.853C17.2574 19.853 16.5078 19.1013 16.5078 18.1994V18.1242L15.1586 16.6961L13.5096 18.2746C13.4346 19.1765 12.6851 19.853 11.8605 19.853C11.036 19.853 10.2115 19.1013 10.2115 18.1994C10.2115 17.2974 10.9611 16.5458 11.8605 16.5458C11.9355 16.5458 12.0105 16.5458 12.1604 16.5458L13.5845 15.1177L12.0854 13.6144C12.0105 13.6144 12.0105 13.6144 11.9355 13.6144C11.036 13.6144 10.2865 12.8628 10.2865 11.9609C10.2865 11.0589 11.036 10.3073 11.9355 10.3073C12.835 10.3073 13.5845 11.0589 13.5845 11.9609L15.1586 13.5393L16.5828 12.1112C16.5828 12.036 16.5828 11.9609 16.5828 11.8857C16.5828 10.9837 17.3324 10.2321 18.2318 10.2321C19.1313 10.2321 19.8809 10.9837 19.8809 11.8857C19.8809 12.7876 19.1313 13.5393 18.2318 13.5393L16.7327 15.0425L18.1569 16.4706H18.2318C19.1313 16.4706 19.8809 17.2223 19.8809 18.1242C19.8809 19.0262 19.1313 19.853 18.1569 19.853ZM20.6304 26.0164C18.9814 26.0164 19.1313 23.536 20.7054 23.536C22.2795 23.6111 22.2045 26.0915 20.6304 26.0164ZM20.7054 6.47395C19.1313 6.47395 19.0564 4.06872 20.6304 3.99356C22.2045 3.9184 22.3544 6.47395 20.7054 6.47395ZM24.828 8.12753C25.5026 8.12753 26.0273 8.65368 26.0273 9.40531C26.0273 10.0818 25.4277 10.6831 24.6781 10.6831C23.0291 10.4576 23.2539 8.12753 24.828 8.12753ZM24.7531 21.8824C24.0784 21.8824 23.4038 21.2811 23.4788 20.6046C23.5537 19.9281 24.0035 19.402 24.7531 19.402C26.4021 19.402 26.4021 21.9575 24.7531 21.8824ZM27.5264 15.268C27.2266 16.6961 25.0529 16.4706 25.0529 15.0425C24.9779 14.2909 25.6525 13.6896 26.3271 13.7648C27.1517 13.8399 27.6764 14.4412 27.5264 15.268Z" fill="#DEDEDE"/>
</svg>
