<svg width="19" height="21" viewBox="0 0 19 21" fill="none" xmlns="http://www.w3.org/2000/svg">
<path d="M16.9062 9.1875H15.9219V6.23438C15.9219 2.79727 13.1246 0 9.6875 0C6.25039 0 3.45312 2.79727 3.45312 6.23438V9.1875H2.46875C1.38184 9.1875 0.5 10.0693 0.5 11.1562V19.0312C0.5 20.1182 1.38184 21 2.46875 21H16.9062C17.9932 21 18.875 20.1182 18.875 19.0312V11.1562C18.875 10.0693 17.9932 9.1875 16.9062 9.1875ZM12.6406 9.1875H6.73438V6.23438C6.73438 4.60605 8.05918 3.28125 9.6875 3.28125C11.3158 3.28125 12.6406 4.60605 12.6406 6.23438V9.1875Z" fill="black"/>
</svg>
