<svg width="49" height="30" viewBox="0 0 49 30" fill="none" xmlns="http://www.w3.org/2000/svg">
<path id="Vector" d="M46.0641 19.2841L45.8349 20.0071L44.9757 20.2381L44.107 20.48L44.9662 20.7037L45.8255 20.9347L46.0735 21.7094L46.3216 22.4749L46.589 21.7006L46.847 20.9178L47.6585 20.7198C48.0978 20.6098 48.432 20.4888 48.3842 20.4522C48.3459 20.4155 48.0216 20.3239 47.6779 20.2359C47.3247 20.1589 46.9905 20.0635 46.9332 20.0306C46.8759 19.9939 46.733 19.6786 46.6184 19.3248C46.5039 18.9802 46.3893 18.6535 46.3509 18.619C46.3123 18.5824 46.1881 18.8779 46.0641 19.2841ZM1.96649 15.8077C1.68008 16.6938 1.68956 16.6682 1.55606 16.7114C1.48931 16.7114 1.10727 16.8324 0.715765 16.9351L0 17.1331L0.801937 17.3567C1.25072 17.485 1.64223 17.6427 1.69004 17.7087C1.72828 17.7783 1.86187 18.1215 1.97646 18.4746L2.18664 19.1202L2.42522 18.4144C2.55872 18.0269 2.71163 17.6746 2.74999 17.6401C2.79783 17.6035 3.17985 17.4751 3.60921 17.3541L4.39222 17.1305L3.62863 16.9325C3.20873 16.8189 2.8267 16.7015 2.76941 16.6575C2.72158 16.6135 2.55923 16.2531 2.42572 15.866L2.17665 15.1602L1.96649 15.8077ZM18.8077 11.1009C17.5569 11.4796 16.0771 12.5725 15.6188 13.4675L15.3897 13.9148H12.6591L11.2176 14.9391C7.84752 17.3314 6.09072 19.0091 5.03127 20.8676C4.16259 22.3994 3.88564 23.8875 4.19098 25.4453L4.29609 26.0048L8.51598 26.0415H12.7359L12.841 25.5509C13.2036 23.8901 14.0628 22.1434 15.2851 20.5684C15.9536 19.7079 16.0298 19.5704 16.1827 18.8995C16.6982 16.6707 18.1592 14.115 20.1351 11.9727C20.6795 11.3876 20.8225 11.1896 20.7269 11.1383C20.4594 10.9989 19.1992 10.9843 18.8077 11.0943L18.8077 11.1009ZM46.5034 7.36673C46.2265 7.6417 45.0903 8.13262 44.384 8.28734C43.5631 8.46699 41.5388 8.47799 40.5556 8.28734L39.8588 8.16635L38.9806 8.99237C37.9306 9.97348 37.2144 10.7049 36.4792 11.5738L35.9352 12.2107L36.7755 12.4526C37.7015 12.7276 38.8282 12.9428 39.4678 12.9773L39.8876 13.014L38.3699 14.0468C35.5154 15.9829 33.0428 17.9873 32.2981 18.96C31.9639 19.3988 31.5629 21.1451 31.4773 22.5823C31.4105 23.5803 31.4866 25.68 31.5918 25.9381C31.6301 26.0334 32.6323 26.0481 37.1959 26.0481C42.4374 26.0481 42.7427 26.0481 42.676 25.8941C42.3707 25.1968 42.0364 24.1387 41.9024 23.4674C41.6923 22.3488 41.759 19.9653 42.0459 18.8812C42.8384 15.8092 44.7192 12.9868 47.8124 10.2246L48.8136 9.33041L47.7536 8.26314C47.1713 7.6868 46.6937 7.20504 46.6842 7.20504C46.6748 7.20504 46.5891 7.27874 46.5034 7.36673ZM1.09781 14.0006H2.94973C4.70652 14.0006 4.81162 14.0006 4.8689 13.8392C4.96454 13.5643 6.27254 12.5139 6.84535 12.2558C7.1412 12.1164 7.60894 11.9881 7.91477 11.9625L8.44923 11.9111V6.92054L7.65676 6.96453C7.1223 7.0012 6.67351 7.08552 6.24365 7.23951C5.89997 7.3605 5.52739 7.46315 5.41333 7.46315C5.16527 7.46315 4.91672 7.24684 4.91672 7.0243C4.91672 6.87031 4.83105 6.85931 3.00751 6.85931H1.09781V14.0006ZM9.49922 7.93464V12.9681H14.7023L14.8931 12.6675C15.1317 12.2631 16.3346 11.2391 17.0604 10.8175C18.7026 9.85433 19.9339 9.82793 22.9225 10.6891C24.7938 11.2226 25.8154 11.429 26.9132 11.4979L27.8486 11.5493L26.2348 12.6422C22.769 14.9652 20.1819 16.927 18.5402 18.4676C15.0844 21.7116 13.5473 24.7231 13.7286 27.8897C13.7668 28.466 13.8526 29.1633 13.9194 29.4471L14.0434 29.9633L22.9509 30C30.0732 30 31.8484 30 31.8105 29.9157C30.8656 27.9707 30.4168 25.9575 30.4074 23.6771C30.398 18.1186 33.2525 12.7753 38.9139 7.7242L40.4127 6.39039L38.9423 4.9103C38.1309 4.09271 37.4435 3.43021 37.4146 3.43021C37.3857 3.43021 37.176 3.56953 36.9658 3.73818C36.4119 4.16823 35.1996 4.67602 34.178 4.90846C33.4333 5.08078 33.0802 5.10645 31.5047 5.09911C29.1083 5.09911 28.3731 4.97079 24.2011 3.87713C20.2965 2.84433 18.5875 2.76697 16.5159 3.5072C16.115 3.65385 15.6851 3.77484 15.5705 3.77484C15.2841 3.77484 14.9405 3.43021 14.9405 3.1468V2.91582H9.49824V7.95004L9.49922 7.93464ZM19.5329 4.67345C19.762 4.92276 19.5138 5.08665 18.7882 5.19004C18.4256 5.23403 17.8623 5.36969 17.5375 5.47234C16.9074 5.68866 16.6594 5.63733 16.6594 5.31103C16.6594 5.08738 16.8596 4.97373 17.6332 4.74311C18.464 4.50114 19.3421 4.46814 19.5329 4.67345ZM20.6212 28.1558V28.4125L18.1293 28.4491C15.456 28.4858 15.3225 28.4492 15.4654 28.036C15.5227 27.8636 15.5705 27.8636 18.0715 27.882L20.6207 27.9186V28.1753L20.6212 28.1558ZM31.8389 0.637573C31.7243 1.0075 31.5814 1.35177 31.5141 1.40347C31.4568 1.45479 31.1321 1.56845 30.7884 1.65278C29.8335 1.88375 29.8241 1.90942 30.7311 2.13453L31.5614 2.33984L31.8195 3.11417L32.0875 3.88006L32.3071 3.20033C32.4311 2.82196 32.5646 2.46926 32.6124 2.426C32.6603 2.37467 33.0612 2.23535 33.4906 2.11803L34.2736 1.89439L33.5573 1.70374C33.1658 1.60108 32.7838 1.48742 32.7076 1.45443C32.6314 1.41776 32.469 1.0845 32.3544 0.705766C32.2304 0.335835 32.1158 0.0172317 32.0964 0C32.0781 0 31.9634 0.275707 31.8389 0.637573Z" fill="#DEDEDE"/>
</svg>
