<svg width="22" height="22" viewBox="0 0 22 22" fill="none" xmlns="http://www.w3.org/2000/svg">
<path id="Vector" d="M21.2158 21L19.2158 19M10.7158 20C11.9634 20 13.1987 19.7543 14.3513 19.2769C15.5039 18.7994 16.5512 18.0997 17.4333 17.2175C18.3155 16.3354 19.0153 15.2881 19.4927 14.1355C19.9701 12.9829 20.2158 11.7476 20.2158 10.5C20.2158 9.25244 19.9701 8.0171 19.4927 6.86451C19.0153 5.71191 18.3155 4.66464 17.4333 3.78249C16.5512 2.90033 15.5039 2.20056 14.3513 1.72314C13.1987 1.24572 11.9634 1 10.7158 1C8.19626 1 5.7799 2.00089 3.99831 3.78249C2.21671 5.56408 1.21582 7.98044 1.21582 10.5C1.21582 13.0196 2.21671 15.4359 3.99831 17.2175C5.7799 18.9991 8.19626 20 10.7158 20Z" stroke="#141415" stroke-width="1.5" stroke-linecap="round" stroke-linejoin="round"/>
</svg>
