<?xml version="1.0" encoding="UTF-8"?>
<svg id="Layer_1" xmlns="http://www.w3.org/2000/svg" viewBox="0 0 1568.39 333.34">
  <defs>
    <style>
      .cls-1 {
        fill: #fff;
      }

      .cls-2 {
        fill: #d3d3d3;
      }

      .cls-3 {
        fill: #a5a5a5;
      }

      .cls-4 {
        fill: #fbfdff;
      }

      .cls-5 {
        fill: #b0b0b0;
      }
    </style>
  </defs>
  <path class="cls-3" d="M1567.99,89.23c.13-1.45.27-2.91.4-4.36v4.32c-.13.04-.27.05-.4.04Z"/>
  <path class="cls-5" d="M1568.39,61.85c-.13-.97-.26-1.94-.4-2.92.14-.02.27,0,.4.04v2.88Z"/>
  <g>
    <path class="cls-4" d="M201.67,88.67c-4.38,2.31-8.77,4.58-13.12,6.93-4.99,2.69-9.84,5.65-14.93,8.14-6.67,3.25-13.79,5.07-21.25,5.32-22.08.74-38.44-13.64-40.97-33.13-2.42-18.65,3.26-34.64,17.36-47.22,13.75-12.27,29.88-19.46,48.32-21.23,12.75-1.23,25.19.47,37.45,3.91,21.13,5.93,40.78,14.93,58.35,28.22,17.07,12.91,30.71,28.82,41.36,47.33.68,1.18,1.36,2.37,1.86,3.62,2.52,6.38,4.98,12.79,7.46,19.19-.36-.32-.77-.59-1.06-.96-3.18-4-6.3-8.04-9.51-12.01-4.26-5.27-8.35-10.69-13.73-14.95-5.66-4.49-11.92-7.7-18.87-9.6-10.02-2.73-20.22-2.93-30.43-1.67-15.45,1.9-29.66,7.55-43.24,14.93-1.74.95-3.36,2.13-5.04,3.2Z"/>
    <path class="cls-2" d="M201.67,88.67c1.68-1.07,3.29-2.25,5.04-3.2,13.58-7.37,27.79-13.03,43.24-14.93,10.21-1.25,20.41-1.05,30.43,1.67,6.95,1.89,13.22,5.11,18.87,9.6,5.38,4.27,9.46,9.69,13.73,14.95,3.21,3.97,6.33,8.01,9.51,12.01.29.37.7.64,1.06.96,1.62,4.42,3.41,8.78,4.81,13.26,4.11,13.17,6.46,26.68,7.77,40.4.93,9.81,1.23,19.63.81,29.46-.25,6.06-.94,12.1-1.46,18.15-.05.58-.3,1.15-.76,1.69-1-5.9-1.93-11.81-3.01-17.69-3.58-19.49-9.7-38.08-20.17-55.03-11.48-18.59-26.8-33.11-46.46-42.83-16-7.91-33-10.86-50.75-9.62-4.22.3-8.43.76-12.65,1.15Z"/>
    <path class="cls-4" d="M78.8,175.95c4.1,2.77,8.18,5.56,12.31,8.29,4.73,3.12,9.63,6,14.23,9.31,6.02,4.34,10.98,9.76,14.73,16.21,11.09,19.11,6.15,40.32-9.83,51.76-15.29,10.95-32.07,13.5-49.82,7.03-17.31-6.31-31.27-17.13-41.55-32.55-7.11-10.66-11.49-22.42-14.26-34.85C-.16,179.74-1.51,158.17,1.9,136.4c3.31-21.15,10.88-40.68,22.16-58.82.72-1.15,1.44-2.32,2.31-3.35,4.43-5.24,8.92-10.43,13.38-15.64-.11.46-.16.95-.35,1.39-2.02,4.69-4.11,9.35-6.09,14.06-2.63,6.25-5.47,12.41-6.69,19.16-1.28,7.1-1.15,14.15.47,21.17,2.33,10.12,6.98,19.2,12.91,27.6,8.97,12.72,20.67,22.57,33.59,31.05,1.66,1.09,3.47,1.96,5.2,2.93Z"/>
    <path class="cls-2" d="M78.8,175.95c-1.74-.97-3.54-1.84-5.2-2.93-12.92-8.48-24.62-18.33-33.59-31.05-5.93-8.41-10.58-17.49-12.91-27.6-1.62-7.02-1.75-14.06-.47-21.17,1.22-6.76,4.06-12.92,6.69-19.16,1.98-4.71,4.07-9.37,6.09-14.06.19-.43.23-.92.35-1.39,3.13-3.51,6.12-7.16,9.41-10.51,9.66-9.84,20.46-18.31,31.93-25.94,8.2-5.46,16.72-10.36,25.57-14.64,5.46-2.64,11.11-4.89,16.69-7.29.54-.23,1.16-.28,1.85-.13-4.72,3.67-9.49,7.29-14.17,11.02-15.49,12.37-28.97,26.55-38.96,43.79-10.96,18.91-16.51,39.27-15.78,61.19.59,17.83,6.03,34.21,15.51,49.27,2.26,3.58,4.66,7.07,6.99,10.6Z"/>
    <path class="cls-4" d="M215.91,234.72c.17-4.94.37-9.89.49-14.83.13-5.67-.03-11.35.34-17,.48-7.41,2.44-14.49,5.92-21.09,10.31-19.54,30.9-26.62,49.08-19.16,17.39,7.14,28.47,20.01,32.4,38.49,3.84,18.02,2.08,35.59-5.52,52.49-5.25,11.68-12.9,21.64-21.96,30.58-15.62,15.42-33.18,28.01-53.43,36.68-19.68,8.42-40.25,12.38-61.61,12.45-1.36,0-2.73.01-4.07-.18-6.79-.98-13.57-2.02-20.36-3.04.45-.15.89-.37,1.36-.44,5.05-.78,10.11-1.48,15.15-2.31,6.69-1.09,13.42-1.95,19.79-4.51,6.7-2.69,12.6-6.54,17.69-11.63,7.34-7.35,12.56-16.11,16.54-25.59,6.01-14.36,8.15-29.5,8.47-44.95.04-1.98-.18-3.97-.28-5.96Z"/>
    <path class="cls-2" d="M215.91,234.72c.1,1.99.33,3.98.28,5.96-.33,15.45-2.46,30.59-8.47,44.95-3.97,9.49-9.2,18.25-16.54,25.59-5.09,5.1-10.99,8.95-17.69,11.63-6.37,2.56-13.1,3.42-19.79,4.51-5.04.82-10.1,1.53-15.15,2.31-.46.07-.91.29-1.36.44-4.64-.79-9.32-1.39-13.91-2.4-13.47-2.96-26.37-7.62-38.93-13.28-8.98-4.05-17.65-8.67-25.98-13.9-5.14-3.23-10.04-6.82-15.04-10.27-.48-.33-.85-.83-1.09-1.5,5.62,2.06,11.21,4.18,16.86,6.16,18.7,6.56,37.88,10.45,57.79,9.77,21.84-.75,42.05-6.86,60.23-19.11,14.8-9.97,25.79-23.27,33.52-39.31,1.84-3.81,3.52-7.7,5.27-11.55Z"/>
  </g>
  <g>
    <path class="cls-1" d="M1567.99,89.23c.12,13.09-2.86,25.67-6.39,38.14-3.97,14.02-13.67,22.11-27.51,25.58-6.61,1.66-13.36,2.53-20.14,2.83-8.3.37-16.62.48-24.93.5-24.71.06-49.41.02-74.12.02h-3.95c-.59-1.97-.74-149.26-.21-152.49.73-.04,1.51-.13,2.28-.13,22.15-.05,44.29-.11,66.44-.11,7.59,0,15.19.08,22.78.31,7.84.24,15.6,1.28,23.33,2.57,3.31.55,6.64,1.06,9.87,1.92,12.77,3.42,21.46,11.54,26.67,23.55,2.85,6.57,4.33,13.51,5.31,20.57.3,2.13.39,4.29.58,6.43.13.97.26,1.94.4,2.92v23.02c-.13,1.45-.27,2.91-.4,4.36ZM1431.7,141.03c.76.08,1.31.17,1.85.18,3.68.05,7.35.13,11.03.12,16.87-.03,33.74-.05,50.61-.13,8.24-.04,16.47-.36,24.62-1.64,7.99-1.25,14.87-4.6,19.34-11.58,4.17-6.5,6.65-13.75,6.67-21.47.04-17.18-.27-34.36-.6-51.53-.09-4.7-.16-9.43-1.29-14.05-2.02-8.26-6.61-14.29-14.93-16.96-8.34-2.67-16.89-4.2-25.67-4.29-5.68-.06-11.35-.14-17.03-.17-17.59-.08-35.18-.15-52.77-.2-.6,0-1.2.14-1.84.23v121.49Z"/>
    <path class="cls-1" d="M667.57,333.34c-1.9-.48-3.8-.98-5.71-1.43-4.12-.98-8.25-1.9-12.35-2.91-1.15-.29-2.25-.81-3.36-1.27-8.2-3.49-12.58-9.85-13.58-18.55-.47-4.04-.61-8.13-.79-12.19-.59-12.86-1.01-25.73.4-38.56.6-5.46,1.77-10.86,2.75-16.28.23-1.25.7-2.45,1.13-3.66,2.71-7.7,8.06-12.61,15.99-14.39,4.27-.96,8.66-1.52,13.02-1.92,9.64-.89,19.32-1.07,29-.53,8.55.48,17.02,1.61,25.37,3.55,1.47.34,2.94.78,4.34,1.35,8.44,3.44,13.19,9.82,13.8,18.81.68,9.96.89,19.95,1.11,29.94.15,6.71.01,13.43-.12,20.14-.11,5.36-.8,10.68-1.98,15.91-2.13,9.49-7.98,15.72-17.19,18.55-4.41,1.36-9.03,2-13.56,2.98-.45.1-.88.31-1.32.47h-36.95ZM723.51,278.66c0-7.04-.13-13.28.04-19.51.13-4.92-.37-9.7-1.69-14.44-1.7-6.12-5.55-9.53-11.83-10.67-15.8-2.87-31.62-3.11-47.49-.88-8.26,1.16-12.91,5.78-13.62,13.63-.69,7.64-1.28,15.28-1.89,22.92-.2,2.55-.49,5.11-.41,7.65.2,6.47.55,12.93.91,19.39.19,3.35.44,6.7.85,10.02.99,7.96,5.45,12.87,13.35,14.14,5.67.91,11.41,1.44,17.15,1.77,7.84.44,15.66-.26,23.42-1.41,3.71-.55,7.42-1.14,10.88-2.74,2.99-1.39,5.4-3.39,6.97-6.32,1.26-2.36,2.02-4.89,2.16-7.55.46-8.93.83-17.87,1.2-26.01Z"/>
    <path class="cls-1" d="M801.47,333.34c-1.39-.31-2.76-.77-4.16-.9-6.05-.56-12.12-.87-18.15-1.57-3.87-.45-7.76-1.14-11.5-2.23-10.72-3.12-15.51-10.13-16.54-20.78-.38-3.97-.42-7.98-.43-11.97-.04-23.34-.02-46.68-.02-70.02,0-.86,0-1.72,0-2.73h15.54c0,1.1,0,2.12,0,3.13,0,21.58-.04,43.16.03,64.74.02,5.03.37,10.05.68,15.07.09,1.5.47,3,.91,4.44,1.46,4.81,4.69,7.92,9.5,9.29,4.01,1.14,8.08,1.85,12.29,1.78,7.75-.13,15.52.02,23.27-.26,6.06-.22,12.15-.59,18.14-1.46,7.44-1.08,11.47-5.49,12.2-12.97.43-4.44.44-8.93.45-13.4.06-22.54.07-45.08.09-67.62,0-.87,0-1.73,0-2.84,5.1-.33,10.01-.11,15.11-.14.08.7.21,1.31.21,1.92,0,25.74.06,51.47-.05,77.21-.01,3.48-.53,7.02-1.33,10.42-2.05,8.75-7.65,14.32-16.16,17.06-5.16,1.66-10.5,2.02-15.85,2.31-4.87.27-9.75.35-14.62.63-1.3.08-2.57.57-3.86.88h-5.76Z"/>
    <path class="cls-1" d="M436.24,333.34c.01-.18.02-.36.03-.55,3.76,0,7.51-.02,11.27,0,4.4.02,8.79.07,13.19.11,0,.15,0,.29-.01.44h-24.48Z"/>
    <path class="cls-1" d="M1098.33,142.29c.51-1.18.87-1.96,1.17-2.75,16.77-43.51,33.54-87.02,50.3-130.53,1.54-4.01,1.95-5.89,8.05-5.39,4.29.35,8.63.08,12.95.08.95,0,1.9,0,3.26,0-.37,1.11-.62,1.98-.95,2.81-6.13,15.69-12.24,31.39-18.4,47.08-12.76,32.48-25.56,64.94-38.34,97.41-1.97,5.01-2.53,5.35-7.96,5.32-7.36-.03-14.71-.02-22.07.04-4.33.03-5.44-.64-6.92-4.73-6.75-18.61-13.47-37.24-20.23-55.85-8.78-24.16-17.58-48.32-26.38-72.47-.34-.92-.82-1.8-1.24-2.69-.19.01-.38.02-.57.03-16.92,45.18-33.85,90.36-50.79,135.57-.64.04-1.11.09-1.58.09-8.56-.02-17.11-.02-25.67-.09-4.38-.03-5.27-.72-6.88-4.86-8.61-22.27-17.25-44.52-25.82-66.8-9.95-25.86-19.85-51.73-29.77-77.61-.37-.96-.68-1.93-1.1-3.16,2.78-.08,5.31-.21,7.84-.2,3.36,0,6.72.24,10.07.15,2.34-.06,3.76,1.09,4.84,2.9.48.82.82,1.73,1.16,2.62,16.46,43.46,32.91,86.92,49.36,130.38.28.73.59,1.44,1.11,2.71.59-1.43,1.02-2.39,1.38-3.37,7.36-19.75,14.74-39.49,22.06-59.26,8.72-23.59,17.38-47.2,26.07-70.8,1.82-4.94,2.71-5.39,7.95-5.28,6.79.14,13.59.02,20.39,0,.24,0,.48-.04.72-.05,3.78-.14,4.99.64,6.29,4.18,3.67,9.96,7.32,19.94,10.98,29.9,12.21,33.2,24.42,66.39,36.64,99.59.58,1.56,1.27,3.09,2.08,5.05Z"/>
    <path class="cls-1" d="M1250.34,19.8v135.95h-20.6V3.85c.74-.06,1.36-.16,1.98-.16,9.6,0,19.19.11,28.79,0,2.61-.03,4.32.91,5.86,2.92,8.51,11.1,17.1,22.14,25.66,33.21,25.75,33.33,51.5,66.67,77.26,100,.48.62,1,1.23,1.72,2.11.16-.77.31-1.25.34-1.74.05-.72.01-1.44.01-2.16,0-43.56,0-87.12,0-130.68,0-1.09.08-2.19.13-3.32h20.46v152.13c-.64.06-1.18.15-1.72.15-9.52-.02-19.03-.13-28.55-.03-2.95.03-5.04-1.14-6.77-3.35-4.43-5.67-8.88-11.32-13.31-16.99-29.8-38.18-59.6-76.37-89.4-114.56-.46-.59-.96-1.15-1.45-1.73-.14.06-.29.11-.43.17Z"/>
    <path class="cls-1" d="M391.17,109.06h20.59c.32,2.86.55,5.64.97,8.39.53,3.47,1.02,6.96,1.88,10.35,1.62,6.4,5.83,10.42,12.28,11.74,4.37.89,8.83,1.43,13.28,1.81,9.32.8,18.67,1.24,28.03.95,9.11-.29,18.21-.84,27.23-2.22,1.57-.24,3.15-.58,4.66-1.07,6.59-2.17,10.65-6.76,11.82-13.53,1.31-7.59,1.68-15.25.14-22.88-.24-1.17-.57-2.33-.94-3.46-1.51-4.57-4.56-7.58-9.14-9.09-3.45-1.14-7.03-1.55-10.62-1.73-8.38-.42-16.78-.71-25.16-1.09-10.15-.46-20.25-1.47-30.28-3.06-7.41-1.18-14.8-2.54-22.18-3.9-9.15-1.69-15.14-7.22-18.44-15.72-2.93-7.55-4.08-15.46-3.45-23.52.34-4.35,1.17-8.7,2.13-12.97,2.04-9.04,7.73-15.03,16.22-18.49,5.44-2.22,11.18-3.29,16.94-4.24,13.7-2.26,27.5-2.88,41.35-2.09,7.5.43,15.01.79,22.47,1.61,6.1.67,12.18,1.79,18.19,3.06,10.41,2.19,17.08,8.58,19.99,18.81,1.51,5.33,2.32,10.77,1.99,16.34-.03.56-.07,1.12-.13,1.67-.03.23-.15.45-.27.77h-20.3c-.4-2.11-.77-4.21-1.22-6.29-.49-2.26-1.01-4.52-1.59-6.76-1.95-7.48-6.84-11.77-14.45-12.76-6.1-.79-12.22-1.5-18.36-1.82-11.27-.58-22.55-.41-33.77.91-3.81.45-7.63.92-11.37,1.71-9.68,2.06-14.58,7.32-15.83,17.04-.67,5.25-.53,10.54.58,15.74,1.95,9.16,6.9,13.97,16.43,15.25,6.24.84,12.57,1.19,18.88,1.34,10.89.26,21.7,1.33,32.51,2.43,9.06.92,18.11,1.96,27.17,2.97,13.25,1.47,21.58,9.23,24.23,22.45,2.64,13.17,1.47,26.08-2.68,38.76-3.21,9.8-10.27,15.43-20.18,17.41-5,1-10.13,1.43-15.22,1.88-13.31,1.18-26.64,1.9-40.01,1.48-14.01-.43-27.91-1.9-41.56-5.21-7.48-1.81-13.81-5.43-17.92-12.22-2.14-3.53-3.33-7.4-4.17-11.41-1.33-6.34-.82-12.71-.72-19.32Z"/>
    <path class="cls-1" d="M573.45,85.47v69.96c-1.89.59-16.51.79-21.64.35-.06-.06-.12-.11-.17-.17-.05-.06-.14-.12-.14-.18-.04-49.8-.08-99.59-.11-149.39,0-.55.07-1.1.13-1.82h21.45v65.7c.77.09,1.37.22,1.98.22,4.8,0,9.59-.09,14.39-.01,1.98.03,3.52-.63,4.99-1.89,7.52-6.46,15.07-12.89,22.62-19.31,16.32-13.89,32.65-27.76,48.96-41.66,2.54-2.17,5.45-3.38,8.74-3.43,7.51-.11,15.03-.09,22.54-.12.23,0,.45.1,1.08.24-2.64,2.49-5.31,4.57-7.87,6.76-2.61,2.24-5.25,4.44-7.88,6.66-2.69,2.27-5.38,4.53-8.07,6.8-2.63,2.22-5.25,4.44-7.88,6.66-2.63,2.22-5.26,4.43-7.89,6.65-2.63,2.22-5.25,4.44-7.88,6.66-2.63,2.22-5.26,4.43-7.89,6.65-2.63,2.22-5.25,4.44-7.88,6.65-2.69,2.27-5.38,4.54-8.07,6.81-2.63,2.22-5.26,4.43-7.89,6.65-2.61,2.21-5.22,4.42-8.09,6.86,32.5,26.12,64.8,52.07,97.54,78.37-1.16.1-1.75.19-2.34.19-7.6,0-15.2-.05-22.79-.01-2.93.01-5.41-.87-7.71-2.74-26.32-21.36-52.7-42.65-79.01-64.03-3.66-2.97-7.56-4.58-12.35-4.11-2.61.26-5.27.06-7.91.06-.87,0-1.73,0-2.98,0Z"/>
    <path class="cls-1" d="M798.71,74.82c4.49-5.64,8.79-11,13.05-16.38,13.46-16.97,26.95-33.91,40.34-50.93,2.31-2.93,4.98-4.11,8.68-3.92,5.02.26,10.07.1,15.11.11,1.43,0,2.86,0,4.83,0-.81,1.07-1.33,1.82-1.9,2.52-11.83,14.59-23.67,29.17-35.51,43.75-10.48,12.9-20.93,25.84-31.49,38.67-2.22,2.69-3.21,5.55-3.2,8.99.04,18.38,0,36.76,0,55.14,0,.94,0,1.88,0,2.98h-21.54c-.04-.89-.11-1.81-.11-2.73,0-14.7,0-29.41-.01-44.11,0-3.99-.19-7.99-.17-11.98.02-3.29-1.18-6-3.19-8.54-15.36-19.34-30.67-38.71-46-58.07-5.95-7.52-11.93-15.02-17.87-22.54-.92-1.16-1.73-2.42-2.73-3.82.62-.13.91-.25,1.2-.25,6.87.02,13.75.04,20.62.09,2.47.02,4.13,1.5,5.57,3.29,4.65,5.79,9.31,11.59,13.94,17.4,12.42,15.55,24.82,31.11,37.24,46.66.94,1.18,1.97,2.28,3.18,3.69Z"/>
    <path class="cls-1" d="M460.73,332.9c-4.4-.04-8.79-.09-13.19-.11-3.76-.02-7.51,0-11.27,0-3.32-.45-6.64-.87-9.96-1.35-5.38-.78-10.78-1.41-16.11-2.43-11.08-2.13-18.09-9.84-19.61-21.05-1.59-11.74-2.52-23.52-2.21-35.37.24-8.95.97-17.87,2.72-26.67.33-1.64.77-3.27,1.29-4.86,2.57-7.86,7.88-12.98,15.67-15.61,4.04-1.36,8.2-2.08,12.44-2.42,15.41-1.23,30.84-1.11,46.27-.54,4.23.15,8.47.26,12.7.55,3.54.25,6.91,1.27,10.06,2.92,6.71,3.51,10.48,9.18,11.91,16.49.75,3.86.79,7.75.17,11.88-4.78.25-9.44.15-14.28.05-.4-2.49-.72-4.84-1.18-7.17-.37-1.87-.76-3.77-1.4-5.56-1.68-4.71-5.17-7.27-10.1-7.55-14.29-.81-28.6-1.42-42.92-.86-4.62.18-9.23.79-13.84,1.27-1.1.12-2.18.48-3.24.82-3.36,1.07-5.78,3.27-6.65,6.66-.89,3.46-1.56,7.02-1.89,10.58-.95,10.11-1.31,20.27-.94,30.42.27,7.5.83,15,1.36,22.49.12,1.66.54,3.31.98,4.92,1.29,4.71,4.29,7.86,9.05,8.97,3.1.72,6.29,1.17,9.46,1.42,11.49.91,23.01.85,34.53.49,4.15-.13,8.3-.51,12.44-.85,1.19-.1,2.38-.34,3.53-.66,4.33-1.19,7.24-3.9,8.67-8.19,1.41-4.23,1.64-8.62,1.76-13.01.09-3.17-.09-6.35-.15-9.78h-43.21v-10.58h58.65c.08.74.19,1.36.19,1.98,0,6.39.07,12.79-.05,19.18-.11,5.62-.93,11.16-2.83,16.47-.85,2.39-1.94,4.75-3.31,6.88-3.19,4.99-8.15,7.37-13.8,8.17-5.14.73-10.34,1.01-15.51,1.48-2.07.19-4.14.37-6.2.55Z"/>
    <path class="cls-1" d="M515.16,222.91c1.01-.1,1.95-.29,2.89-.28,21.75,0,43.5-.03,65.25.08,6.66.03,13.21,1.1,19.57,3.17.46.15.91.31,1.36.47,8.5,2.98,13.25,9.06,14.85,17.81,1.05,5.8.92,11.61.3,17.43-.22,2.06-.48,4.13-.73,6.19-.56,4.56-2.68,8.24-6.65,10.55-2.32,1.35-4.93,2.21-7.46,3.17-1.38.53-2.86.8-4.29,1.19-.02.17-.04.34-.06.51,1.33.39,2.67.74,3.97,1.19,1.66.57,3.36,1.07,4.91,1.87,5.23,2.72,8.3,7.12,8.57,12.97.38,8.45.33,16.93.43,25.39.03,2.3-.06,4.59-.1,7.03h-15.75c0-.99,0-1.85,0-2.7.03-7.19.13-14.39.04-21.58-.03-2.53-.36-5.1-.87-7.59-.92-4.48-3.73-7.48-7.94-9.22-3.44-1.42-7.06-2.08-10.73-2.31-5.02-.31-10.06-.59-15.09-.6-12.07-.04-24.14.08-36.22.14-.39,0-.78.06-1.51.12-.12,3.66-.04,7.3-.06,10.94-.01,3.6,0,7.19,0,10.79v21.93h-14.67v-108.7ZM529.83,277.17c.71.08,1.1.16,1.49.16,14.71.04,29.42.13,44.13.07,4.47-.02,8.96-.2,13.4-.73,7.75-.92,12.65-4.98,14.15-11.96,1.57-7.29,1.38-14.6-1.13-21.74-2-5.71-6.11-8.6-12.06-8.95-2.95-.18-5.91-.3-8.87-.31-15.99-.08-31.99-.13-47.98-.18-.56,0-1.12,0-1.68,0-.99,0-1.46.5-1.44,1.49,0,.48,0,.96,0,1.44,0,12.71,0,25.42,0,38.13v2.58Z"/>
    <path class="cls-1" d="M872.21,222.95c.68-.07,1.3-.18,1.92-.18,20.95-.04,41.9-.12,62.86-.06,4.95.01,9.92.27,14.82.88,2.88.36,5.78,1.33,8.44,2.53,6.81,3.1,10.67,8.73,12.43,15.82.61,2.46,1.02,5.03,1.09,7.57.2,6.62.46,13.27-.95,19.82-2.23,10.4-9.95,17.1-20.61,18-15.79,1.34-31.62,1.59-47.44,1.95-5.28.12-10.55.18-15.83.28-.56,0-1.11.06-1.98.11-.16,2.78-.05,5.55-.07,8.31-.02,2.8,0,5.6,0,8.39v25.02h-14.68v-108.45ZM887.3,278.29c.95.05,1.58.11,2.21.11,11.67,0,23.34-.02,35.01.01,7.54.02,14.99-.82,22.4-2.15,5.79-1.04,9.41-4.8,10.15-10.57.88-6.94.59-13.89-.28-20.8-.8-6.33-4.9-9.91-11.28-10.32-2.63-.17-5.27-.37-7.9-.4-16.15-.2-32.29-.35-48.44-.51-.6,0-1.21.13-1.87.21v44.41Z"/>
    <path class="cls-1" d="M1210.08,155.77h-20.34V3.9h20.2c.47,1.73.62,148.37.14,151.87Z"/>
  </g>
</svg>