<svg width="30" height="30" viewBox="0 0 30 30" fill="none" xmlns="http://www.w3.org/2000/svg">
<g id="Group">
<path id="Vector" d="M1.1305 27.376C1.1305 21.8282 1.1305 16.2804 1.1305 10.7325C1.1305 8.63335 1.1305 6.53417 1.1305 4.36001C1.1305 2.3358 2.0615 1.21124 3.857 1.28621C5.18699 1.28621 6.38399 1.13627 7.64749 0.686449C10.374 -0.28817 13.1005 -0.2132 15.827 0.836391C16.758 1.21124 17.689 1.36119 18.62 1.36119C19.019 1.36119 19.418 1.36119 19.7505 1.36119C21.147 1.66107 21.8785 2.71066 21.8785 4.36001C21.8785 11.7821 21.8785 19.2792 21.8785 26.7013C21.8785 27.1511 21.945 27.376 22.344 27.6009C22.8095 27.8258 23.009 28.2007 23.009 28.8005C23.009 29.3253 22.61 29.7751 22.1445 29.925C21.945 29.925 21.7455 30 21.4795 30C14.8295 30 8.24599 30 1.596 30C1.33 30 1.064 30 0.864499 29.8501C0.3325 29.7001 0 29.2503 0 28.6505C0 28.2007 0.3325 27.6759 0.731499 27.526C0.864499 27.451 0.997499 27.451 1.1305 27.376ZM11.571 15.6806C13.4995 15.6806 15.428 15.6806 17.423 15.6806C18.6865 15.6806 19.6175 14.706 19.684 13.2815C19.7505 11.4822 19.7505 9.68294 19.684 7.88364C19.684 6.38422 18.753 5.25966 17.6225 5.25966C13.6325 5.25966 9.70899 5.25966 5.71899 5.25966C4.389 5.25966 3.5245 6.38422 3.5245 7.88364C3.5245 9.60797 3.5245 11.3323 3.5245 13.0566C3.5245 14.556 4.522 15.6806 5.85199 15.6806C7.71399 15.6806 9.64249 15.6806 11.571 15.6806ZM17.29 19.5791H5.78549V24.7521H17.29V19.5791Z" fill="#DEDEDE"/>
<path id="Vector_2" d="M24.2725 19.654V16.955C24.6715 16.955 25.004 16.955 25.403 16.955C26.1345 16.955 26.5335 16.5052 26.5335 15.7555C26.5335 13.5064 26.5335 11.2572 26.5335 9.00813C26.5335 8.85818 26.4005 8.70824 26.2675 8.63327C25.536 7.95854 25.2035 6.83398 25.4695 5.85936C25.802 4.80977 26.6665 4.06006 27.664 4.06006C28.595 4.06006 29.526 4.73479 29.8585 5.78438C30.191 6.759 29.925 7.88357 29.1935 8.5583C28.9275 8.78321 28.861 9.0831 28.861 9.45795C28.861 11.4822 28.861 13.5064 28.861 15.5306C28.861 17.5548 27.93 19.0542 26.467 19.504C25.7355 19.504 25.0705 19.504 24.2725 19.654Z" fill="#DEDEDE"/>
<path id="Vector_3" d="M8.04615 7.88354V13.0565H5.78516V7.88354H8.04615Z" fill="#DEDEDE"/>
<path id="Vector_4" d="M12.635 13.0565H10.374V7.88354H12.635V13.0565Z" fill="#DEDEDE"/>
<path id="Vector_5" d="M15.0293 7.88354H17.2903V13.0565H15.0293V7.88354Z" fill="#DEDEDE"/>
</g>
</svg>
