<?xml version="1.0" encoding="utf-8"?>
<!-- Generator: Adobe Illustrator 28.0.0, SVG Export Plug-In . SVG Version: 6.00 Build 0)  -->
<svg version="1.1" id="Layer_1" xmlns="http://www.w3.org/2000/svg" xmlns:xlink="http://www.w3.org/1999/xlink" x="0px" y="0px"
	 viewBox="0 0 820.4 116" style="enable-background:new 0 0 820.4 116;" xml:space="preserve">
<style type="text/css">
	.st0{fill:#EF7807;}
	.st1{fill:none;stroke:#000000;stroke-width:1.000000e-02;stroke-linecap:round;stroke-linejoin:round;stroke-miterlimit:10;}
</style>
<g>
	<g>
		<g>
			<path class="st0" d="M119.1,78.5c0,1,0.1,2.1,0.1,3.1c-0.2,13.4-4.2,22.5-12,27.2c-7.8,4.8-18.4,7.2-31.8,7.2H5.1V95.4h66
				c5.8,0.1,10.9-0.8,15.1-2.6c4.2-1.8,6-6,5.1-12.4c-0.6-5-2.6-8.1-6.1-9.3c-3.5-1.2-7.6-1.8-12.4-1.9l-31.1-0.2
				c-12.9,0.1-23.2-2.3-30.7-7.2C3.6,57.1-0.1,48.2,0,35.5C0.2,22.1,4.3,13,12.1,8.1S30.6,0.8,44,0.8l69-0.2v20.6H47.9
				c-5.7,0.1-10.5,1.2-14.4,3.3c-3.9,2.1-5.9,6.1-5.9,12c0,4.5,1.7,7.7,5,9.6C35.9,48,39.8,49,44.2,49l34.9-0.2
				c1.3,0.1,2.6,0.2,4,0.2c1.4,0,2.8,0.1,4.2,0.2c4.1,0.2,8.1,0.8,12,1.9c4,1,7.5,2.9,10.5,5.5c2.8,2.4,4.9,5.2,6.3,8.5
				c1.4,3.3,2.3,6.8,2.6,10.3C118.9,76.4,119,77.5,119.1,78.5z"/>
		</g>
		<path d="M196.7,40.4c-4-3.9-8.8-6.9-14.4-8.9c-5.6-2-11.3-3-17.2-3c-6,0-11.8,1-17.4,3c-5.6,2-10.4,4.9-14.4,8.9
			c-4.1,4-7.2,8.9-9.2,14.5c-2,5.7-3.1,11.5-3.1,17.4c0,6,1,11.8,3.1,17.4c2,5.7,5.1,10.5,9.2,14.6c4,3.9,8.7,6.9,14.3,8.8
			c5.5,1.9,11.3,2.9,17.3,2.9c6,0,11.8-1,17.4-2.9c5.6-1.9,10.4-4.9,14.4-9v0.2c4.1-4.1,7.1-8.9,9.2-14.6c2-5.6,3.1-11.5,3.1-17.4
			c0-6-1-11.8-3.1-17.4C203.8,49.3,200.7,44.4,196.7,40.4z M185.7,77.2c-0.3,2.1-0.7,4-1.2,5.8c-1.5,5.1-4.4,9-8.8,11.7
			c-4.4,2.7-9.1,3.6-14.2,2.9c-0.6-0.1-1.3-0.3-2-0.5c-0.7-0.2-1.4-0.5-2.1-0.8v0.2c-4.7-1.8-8.2-4.9-10.3-9.3
			c-2.1-4.4-3.3-9.1-3.4-14.2c-0.1-1.9,0-3.9,0.2-5.8c0.3-2,0.7-3.9,1.2-5.7c1.5-4.8,4.3-8.5,8.5-11.2c4.2-2.7,8.7-3.8,13.5-3.3
			c0.9,0.1,1.9,0.3,3,0.5c1,0.2,2,0.5,3,1c4.4,1.9,7.6,5,9.6,9.2s3.1,8.7,3.3,13.3C186.1,73,186,75.1,185.7,77.2z"/>
		<path d="M291.9,48.5v33.8c-0.1,8.4,1.8,13.2,5.6,14.6c3.8,1.4,9.1,2.1,15.9,2.1h1.4v16.5H295c-8.2,0-14.4-2.3-18.6-7
			c-4.2-4.7-6.2-11-6.2-19.1v-41l-15.3,0l-13.6,0V116h-22.6V48.5h-15.7V31.7h15.7V29c0-9.2,0.9-16,2.8-20.6c1.8-4.6,8.5-6.9,19.9-7
			L262,1.2v16.3c-0.4,0.1-0.9,0.1-1.6,0.1c-0.6-0.1-1.3-0.1-2-0.1c-0.8,0-1.7,0-2.7-0.1c-1-0.1-1.8-0.1-2.7-0.1
			c-1.9,0-3.7,0.1-5.3,0.4c-1.7,0.3-2.9,0.8-3.8,1.5c-1.2,0.9-1.9,2-2.3,3.4c-0.4,1.4-0.5,2.8-0.5,4.2v1.4c0,0.4,0,0.9,0.2,1.3v2.4
			l13.1-0.1h0.5l2.1,0h13.2V1.5h21.7v30.3h22.9v16.7H291.9z"/>
	</g>
</g>
<g>
	<path d="M579.6,48.5v34.1c-0.1,8.4,1.8,13.3,5.7,14.7c3.9,1.4,9.2,2.1,16,2.1h1.4V116h-20c-8.3,0-14.5-2.3-18.7-7
		c-4.2-4.7-6.3-11.1-6.3-19.2V48.5h-15.4V31.7h15.4V1.2h21.8v30.5h23.1v16.8H579.6z"/>
</g>
<g>
	<path d="M672.2,62.8V68l-20.9-0.2v-3.5c0-7.6-0.6-12.1-1.8-13.4c-1.2-1.2-5.6-1.9-13.1-1.9H634V116h-21.9V33.1h36.8
		c11.8,0.1,18.7,2.8,20.6,8.2C671.4,46.6,672.3,53.8,672.2,62.8z"/>
</g>
<g>
	<rect x="675.7" y="3.1" width="22.9" height="20.6"/>
	<rect x="675.7" y="33.1" width="22.9" height="82.9"/>
</g>
<g>
	<polygon points="817.4,0 789.7,38.8 773.9,18.9 787.1,0 	"/>
	<polygon points="820.4,116 788.8,116 762.5,75.6 734.6,116 703.5,116 747.1,58 704.9,0 735.6,0 761.4,36.7 777.1,56.4 	"/>
</g>
<g>
	<g>
		<rect x="324.2" y="61.4" class="st0" width="22" height="54.6"/>
		<path class="st0" d="M442.5,62.8V116h-22V65.5c0-7.9-1.7-12.4-5-13.7c-3.3-1.2-8.2-1.7-14.9-1.5c-1,0.1-2.1,0.2-3.2,0.2h-3.4V116
			h-22.3V50.3h-25.6v0.1h-22V31.7h83.9c10.7,0.2,19.1,2.5,25.1,6.7C439.3,42.7,442.4,50.8,442.5,62.8z"/>
	</g>
</g>
<g>
	<path d="M476.7,92.6c-2.3-2-3.7-5.7-4.3-11.1H521c6.1,0,11-1.8,14.7-5.6c3.6-3.7,5.5-9.6,5.5-17.7c0-8.1-2.2-14.3-6.6-18.8
		c-4.4-4.4-11.2-6.6-20.4-6.6h-29.9c-6.8,0-12.6,0.7-17.3,2.1c-4.8,1.4-8.6,3.8-11.5,7c-2.9,3.3-5,7.6-6.3,12.9
		c-1.3,5.3-1.9,11.8-1.9,19.4c0,7.8,0.7,14.3,2.2,19.6c1.5,5.3,3.7,9.6,6.8,12.9c3,3.3,6.8,5.6,11.5,7c4.6,1.4,10.2,2.1,16.6,2.1
		h53.2V95.7h-49.2C482.9,95.7,479,94.7,476.7,92.6z M476.6,53.8c2.3-2.1,6.2-3.2,11.6-3.2h21.4c2.5,0,4.3,0.6,5.4,1.8
		c1.1,1.2,1.7,3,1.7,5.2c0,2.4-0.5,4.2-1.7,5.2c-1.1,1.1-2.9,1.6-5.4,1.6h-37.2C472.9,59.5,474.3,56,476.6,53.8z"/>
</g>
<line class="st1" x1="773.9" y1="18.9" x2="773.8" y2="18.8"/>
</svg>
