<svg width="22" height="21" viewBox="0 0 22 21" fill="none" xmlns="http://www.w3.org/2000/svg">
<path d="M21.5 10.5C21.5 4.7145 16.7855 0 11 0C5.2145 0 0.5 4.7145 0.5 10.5C0.5 13.545 1.8125 16.2855 3.8915 18.207C3.8915 18.2175 3.8915 18.2175 3.881 18.228C3.986 18.333 4.112 18.417 4.217 18.5115C4.28 18.564 4.3325 18.6165 4.3955 18.6585C4.5845 18.816 4.7945 18.963 4.994 19.11C5.0675 19.1625 5.1305 19.2045 5.204 19.257C5.4035 19.3935 5.6135 19.5195 5.834 19.635C5.9075 19.677 5.9915 19.7295 6.065 19.7715C6.275 19.887 6.4955 19.992 6.7265 20.0865C6.8105 20.1285 6.8945 20.1705 6.9785 20.202C7.2095 20.2965 7.4405 20.3805 7.6715 20.454C7.7555 20.4855 7.8395 20.517 7.9235 20.538C8.1755 20.6115 8.4275 20.6745 8.6795 20.7375C8.753 20.7585 8.8265 20.7795 8.9105 20.79C9.2045 20.853 9.4985 20.895 9.803 20.9265C9.845 20.9265 9.887 20.937 9.929 20.9475C10.286 20.979 10.643 21 11 21C11.357 21 11.714 20.979 12.0605 20.9475C12.1025 20.9475 12.1445 20.937 12.1865 20.9265C12.491 20.895 12.785 20.853 13.079 20.79C13.1525 20.7795 13.226 20.748 13.31 20.7375C13.562 20.6745 13.8245 20.622 14.066 20.538C14.15 20.5065 14.234 20.475 14.318 20.454C14.549 20.37 14.7905 20.2965 15.011 20.202C15.095 20.1705 15.179 20.1285 15.263 20.0865C15.4835 19.992 15.704 19.887 15.9245 19.7715C16.0085 19.7295 16.082 19.677 16.1555 19.635C16.3655 19.509 16.5755 19.3935 16.7855 19.257C16.859 19.215 16.922 19.1625 16.9955 19.11C17.2055 18.963 17.405 18.816 17.594 18.6585C17.657 18.606 17.7095 18.5535 17.7725 18.5115C17.888 18.417 18.0035 18.3225 18.1085 18.228C18.1085 18.2175 18.1085 18.2175 18.098 18.207C20.1875 16.2855 21.5 13.545 21.5 10.5ZM16.187 15.7185C13.3415 13.8075 8.6795 13.8075 5.813 15.7185C5.351 16.023 4.973 16.38 4.658 16.7685C3.062 15.1515 2.075 12.936 2.075 10.5C2.075 5.5755 6.0755 1.575 11 1.575C15.9245 1.575 19.925 5.5755 19.925 10.5C19.925 12.936 18.938 15.1515 17.342 16.7685C17.0375 16.38 16.649 16.023 16.187 15.7185Z" fill="#292D32"/>
<path d="M11 5.17618C8.8265 5.17618 7.0625 6.94018 7.0625 9.11369C7.0625 11.2452 8.732 12.9777 10.9475 13.0407H11.042H11.1155H11.1365C13.2575 12.9672 14.927 11.2452 14.9375 9.11369C14.9375 6.94018 13.1735 5.17618 11 5.17618Z" fill="#292D32"/>
</svg>
